<svg width="304" height="304" viewBox="0 0 304 304" fill="none" xmlns="http://www.w3.org/2000/svg">
<rect width="304" height="304" rx="64" fill="#2B2D33"/>
<path d="M96 50.7705C96 48.5106 93.5992 47.1207 91.6469 48.2589C55.9736 69.0573 32 107.729 32 152C32 156.162 32 159 32.6255 164.327C34.4715 180.051 48.493 190 64 190C81.6731 190 96 175.673 96 158C96 138.68 96 69.842 96 50.7705Z" fill="white"/>
<path d="M65.3854 235.054C63.5681 233.159 65.0358 230.039 67.6577 229.904C75.8514 229.483 83.9668 227.662 91.5532 224.519C100.289 220.901 108.226 215.598 114.912 208.912C121.597 202.226 126.901 194.289 130.519 185.553C134.138 176.818 136 167.455 136 158V38.311C136 35.3035 138.225 32.7442 141.221 32.4775C144.772 32.1614 148.367 32 152 32C218.274 32 272 85.7258 272 152C272 159.454 271.32 166.75 270.019 173.828C269.573 176.256 266.535 176.99 264.948 175.099L221.593 123.431C215.513 116.185 206.539 112 197.08 112L178 112C174.686 112 172 114.686 172 118V265.264C172 268.194 169.885 270.712 166.976 271.075C162.07 271.685 157.072 272 152 272C117.957 272 87.2255 257.824 65.3854 235.054Z" fill="white"/>
<path d="M212 182.469C212 179.668 215.498 178.395 217.298 180.541L247.725 216.802C249.464 218.875 249.613 221.865 247.988 224.028C239.324 235.555 228.633 245.47 216.444 253.245C214.496 254.487 212 253.055 212 250.745V182.469Z" fill="white"/>
</svg>
