<svg width="839" height="240" viewBox="0 0 839 240" fill="none" xmlns="http://www.w3.org/2000/svg">
<path d="M64 18.7705C64 16.5106 61.5992 15.1207 59.6469 16.2589C23.9736 37.0573 2.1896e-10 75.729 2.1896e-10 120C2.1896e-10 124.162 0 127 0.625457 132.327C2.47149 148.051 16.493 158 32 158C49.6731 158 64 143.673 64 126C64 106.68 64 37.842 64 18.7705Z" fill="white"/>
<path d="M33.3854 203.054C31.5681 201.159 33.0358 198.039 35.6577 197.904C43.8514 197.483 51.9668 195.662 59.5532 192.519C68.2887 188.901 76.2259 183.598 82.9117 176.912C89.5975 170.226 94.901 162.289 98.5193 153.553C102.138 144.818 104 135.455 104 126V6.31097C104 3.30354 106.225 0.744217 109.221 0.477541C112.772 0.161441 116.367 0 120 0C186.274 0 240 53.7258 240 120C240 127.454 239.32 134.75 238.019 141.828C237.573 144.256 234.535 144.99 232.948 143.099L189.593 91.4308C183.513 84.1848 174.539 80 165.08 80L146 80C142.686 80 140 82.6863 140 86V233.264C140 236.194 137.885 238.712 134.976 239.075C130.07 239.685 125.072 240 120 240C85.9573 240 55.2255 225.824 33.3854 203.054Z" fill="white"/>
<path d="M180 150.469C180 147.668 183.498 146.395 185.298 148.541L215.725 184.802C217.464 186.875 217.613 189.865 215.988 192.028C207.324 203.555 196.633 213.47 184.444 221.245C182.496 222.487 180 221.055 180 218.745V150.469Z" fill="white"/>
<path d="M540.016 220.68C533.296 220.68 527.096 219.6 521.416 217.44C515.736 215.28 510.776 212.24 506.536 208.32C502.376 204.32 499.136 199.68 496.816 194.4C494.496 189.12 493.336 183.32 493.336 177C493.336 170.68 494.496 164.88 496.816 159.6C499.136 154.32 502.376 149.72 506.536 145.8C510.776 141.8 515.736 138.72 521.416 136.56C527.096 134.4 533.296 133.32 540.016 133.32C546.816 133.32 553.016 134.4 558.616 136.56C564.296 138.72 569.216 141.8 573.376 145.8C577.536 149.72 580.776 154.32 583.096 159.6C585.496 164.88 586.696 170.68 586.696 177C586.696 183.32 585.496 189.16 583.096 194.52C580.776 199.8 577.536 204.4 573.376 208.32C569.216 212.24 564.296 215.28 558.616 217.44C553.016 219.6 546.816 220.68 540.016 220.68ZM540.016 201C543.216 201 546.176 200.44 548.896 199.32C551.696 198.2 554.096 196.6 556.096 194.52C558.176 192.36 559.776 189.8 560.896 186.84C562.096 183.88 562.696 180.6 562.696 177C562.696 173.32 562.096 170.04 560.896 167.16C559.776 164.2 558.176 161.68 556.096 159.6C554.096 157.44 551.696 155.8 548.896 154.68C546.176 153.56 543.216 153 540.016 153C536.816 153 533.816 153.56 531.016 154.68C528.296 155.8 525.896 157.44 523.816 159.6C521.816 161.68 520.216 164.2 519.016 167.16C517.896 170.04 517.336 173.32 517.336 177C517.336 180.6 517.896 183.88 519.016 186.84C520.216 189.8 521.816 192.36 523.816 194.52C525.896 196.6 528.296 198.2 531.016 199.32C533.816 200.44 536.816 201 540.016 201Z" fill="white"/>
<path d="M395.302 219C394.218 219 393.492 217.886 393.93 216.894L429.027 137.385C429.667 135.935 431.102 135 432.687 135H450.877C452.459 135 453.893 135.933 454.534 137.38L489.747 216.893C490.186 217.884 489.46 219 488.375 219H466.974C466.362 219 465.81 218.627 465.582 218.059L437.746 148.699C437.351 147.713 438.076 146.64 439.138 146.64H444.062C445.124 146.64 445.849 147.713 445.454 148.699L417.618 218.059C417.39 218.627 416.838 219 416.226 219H395.302ZM415.393 202.68C414.36 202.68 413.636 201.66 413.977 200.685L419.049 186.165C419.259 185.563 419.827 185.16 420.465 185.16H459.375C460.013 185.16 460.581 185.563 460.791 186.165L465.863 200.685C466.204 201.66 465.48 202.68 464.447 202.68H415.393Z" fill="white"/>
<path d="M286.5 219C285.672 219 285 218.328 285 217.5V136.5C285 135.672 285.672 135 286.5 135H301.19C303.283 135 305.225 136.091 306.314 137.878L337.971 189.84C338.58 190.839 337.86 192.12 336.69 192.12H331.672C330.51 192.12 329.789 190.855 330.382 189.855L361.137 137.942C362.218 136.118 364.18 135 366.299 135H380.944C381.771 135 382.442 135.669 382.444 136.496L382.676 217.496C382.678 218.326 382.006 219 381.176 219H362.333C361.507 219 360.837 218.333 360.833 217.507L360.606 169.592C360.603 168.846 361.206 168.24 361.952 168.24C362.996 168.24 363.642 169.377 363.107 170.274L339.436 209.988C339.166 210.442 338.676 210.72 338.148 210.72H329.28C328.758 210.72 328.274 210.449 328.001 210.004L303.8 170.524C303.187 169.524 303.907 168.24 305.079 168.24H305.46C306.288 168.24 306.96 168.912 306.96 169.74V217.5C306.96 218.328 306.288 219 305.46 219H286.5Z" fill="white"/>
<path d="M801.033 106.68C794.393 106.68 788.233 105.64 782.553 103.56C776.873 101.4 771.953 98.3603 767.793 94.4403C763.713 90.5203 760.513 85.9203 758.193 80.6403C755.873 75.2803 754.713 69.4003 754.713 63.0003C754.713 56.6003 755.873 50.7603 758.193 45.4803C760.513 40.1203 763.753 35.4803 767.913 31.5603C772.073 27.6403 776.993 24.6403 782.673 22.5603C788.433 20.4003 794.713 19.3203 801.513 19.3203C809.433 19.3203 816.513 20.6403 822.753 23.2803C828.528 25.7238 833.379 29.161 837.304 33.5919C837.835 34.1915 837.766 35.103 837.172 35.6404L824.214 47.3639C823.604 47.9158 822.666 47.8707 822.084 47.2896C819.493 44.7041 816.717 42.741 813.753 41.4003C810.473 39.8003 806.793 39.0003 802.713 39.0003C799.113 39.0003 795.833 39.5603 792.873 40.6803C789.913 41.8003 787.393 43.4403 785.313 45.6003C783.233 47.6803 781.593 50.2003 780.393 53.1603C779.273 56.0403 778.713 59.3203 778.713 63.0003C778.713 66.5203 779.273 69.7603 780.393 72.7203C781.593 75.6803 783.233 78.2403 785.313 80.4003C787.393 82.4803 789.873 84.1203 792.753 85.3203C795.713 86.4403 798.953 87.0003 802.473 87.0003C805.993 87.0003 809.433 86.4403 812.793 85.3203C815.765 84.2588 818.769 82.5713 821.804 80.2577C822.467 79.7522 823.417 79.8518 823.938 80.5034L835.327 94.7656C835.863 95.4369 835.728 96.4222 835.014 96.8995C830.518 99.9037 825.391 102.244 819.633 103.92C813.313 105.76 807.113 106.68 801.033 106.68ZM816.592 93.0704C815.857 92.9612 815.313 92.33 815.313 91.5867V62.7003C815.313 61.8719 815.985 61.2003 816.813 61.2003H834.813C835.641 61.2003 836.313 61.8719 836.313 62.7003V94.261C836.313 95.1772 835.499 95.8794 834.592 95.7447L816.592 93.0704Z" fill="white"/>
<path d="M661.254 105C660.425 105 659.754 104.328 659.754 103.5V22.5C659.754 21.6716 660.425 21 661.254 21H678.609C679.055 21 679.479 21.1991 679.764 21.5431L723.599 74.4631C724.409 75.4409 723.713 76.92 722.444 76.92H717.894C717.065 76.92 716.394 76.2484 716.394 75.42V22.5C716.394 21.6716 717.065 21 717.894 21H738.174C739.002 21 739.674 21.6716 739.674 22.5V103.5C739.674 104.328 739.002 105 738.174 105H720.819C720.372 105 719.949 104.801 719.664 104.457L675.829 51.5369C675.019 50.5591 675.714 49.08 676.984 49.08H681.534C682.362 49.08 683.034 49.7516 683.034 50.58V103.5C683.034 104.328 682.362 105 681.534 105H661.254Z" fill="white"/>
<path d="M618.988 105C618.16 105 617.488 104.328 617.488 103.5V22.5C617.488 21.6716 618.16 21 618.988 21H639.748C640.577 21 641.248 21.6716 641.248 22.5V103.5C641.248 104.328 640.577 105 639.748 105H618.988Z" fill="white"/>
<path d="M502.896 105C502.068 105 501.396 104.328 501.396 103.5V22.5C501.396 21.6716 502.068 21 502.896 21H517.586C519.679 21 521.621 22.0908 522.71 23.8783L554.367 75.8396C554.976 76.8391 554.257 78.12 553.086 78.12H548.069C546.906 78.12 546.186 76.8554 546.778 75.8554L577.534 23.9418C578.614 22.1183 580.576 21 582.696 21H597.341C598.168 21 598.838 21.669 598.841 22.4957L599.072 103.496C599.075 104.326 598.402 105 597.572 105H578.729C577.904 105 577.233 104.333 577.229 103.507L577.003 55.5918C576.999 54.8462 577.603 54.24 578.348 54.24C579.392 54.24 580.039 55.3774 579.504 56.2743L555.833 95.988C555.562 96.4419 555.073 96.72 554.544 96.72H545.676C545.155 96.72 544.67 96.4488 544.398 96.0039L520.197 56.5239C519.584 55.5245 520.303 54.24 521.475 54.24H521.856C522.685 54.24 523.356 54.9116 523.356 55.74V103.5C523.356 104.328 522.685 105 521.856 105H502.896Z" fill="white"/>
<path d="M395.302 105C394.218 105 393.492 103.886 393.93 102.894L429.027 23.3847C429.667 21.9352 431.102 21 432.687 21H450.877C452.459 21 453.893 21.9332 454.534 23.3803L489.747 102.893C490.186 103.884 489.46 105 488.375 105H466.974C466.362 105 465.81 104.627 465.582 104.059L437.746 34.6987C437.351 33.7132 438.076 32.64 439.138 32.64H444.062C445.124 32.64 445.849 33.7132 445.454 34.6987L417.618 104.059C417.39 104.627 416.838 105 416.226 105H395.302ZM415.393 88.68C414.36 88.68 413.636 87.6605 413.977 86.6853L419.049 72.1653C419.259 71.5633 419.827 71.16 420.465 71.16H459.375C460.013 71.16 460.581 71.5633 460.791 72.1653L465.863 86.6853C466.204 87.6605 465.48 88.68 464.447 88.68H415.393Z" fill="white"/>
<path d="M360.5 105C359.672 105 359 104.328 359 103.5V22.5C359 21.6716 359.672 21 360.5 21H381.26C382.088 21 382.76 21.6716 382.76 22.5V103.5C382.76 104.328 382.088 105 381.26 105H360.5Z" fill="white"/>
<path d="M309.16 106.68C303 106.68 297.4 105.64 292.36 103.56C287.8 101.574 283.95 98.8106 280.81 95.2694C280.33 94.7284 280.338 93.919 280.805 93.3664L291.766 80.375C292.381 79.6461 293.51 79.6706 294.131 80.3946C296.006 82.5813 297.935 84.3031 299.92 85.56C302.32 87 304.84 87.72 307.48 87.72C314.52 87.72 318.04 83.64 318.04 75.48V40.86C318.04 40.0316 317.368 39.36 316.54 39.36H290.5C289.672 39.36 289 38.6884 289 37.86V22.5C289 21.6716 289.672 21 290.5 21H340.06C340.888 21 341.56 21.6716 341.56 22.5V74.04C341.56 85 338.8 93.2 333.28 98.64C327.76 104 319.72 106.68 309.16 106.68Z" fill="white"/>
</svg>
